<?xml version="1.0" standalone="no"?><!DOCTYPE svg PUBLIC "-//W3C//DTD SVG 1.1//EN" "http://www.w3.org/Graphics/SVG/1.1/DTD/svg11.dtd"><svg t="1611737139555" class="icon" viewBox="0 0 1024 1024" version="1.1" xmlns="http://www.w3.org/2000/svg" p-id="5512" xmlns:xlink="http://www.w3.org/1999/xlink" width="200" height="200"><defs><style type="text/css"></style></defs><path d="M355.712 595.424l37.184-102.112a197.984 197.984 0 0 1-92.384-167.456A198.08 198.08 0 0 1 498.368 128a198.08 198.08 0 0 1 197.856 197.856 196.736 196.736 0 0 1-35.264 112.8 197.696 197.696 0 0 1-66.336 60.16l19.008 96.64h180.16a47.36 47.36 0 0 1 47.296 47.296v144.832a47.36 47.36 0 0 1-47.328 47.328H175.296A47.36 47.36 0 0 1 128 787.584v-144.832a47.36 47.36 0 0 1 47.296-47.328h180.416z m56.608 43.872c-4.16 14.272-17.344 24.704-32.96 24.704H196.576v102.336h575.936V664h-176.832a34.56 34.56 0 0 1-5.12-0.384 34.304 34.304 0 0 1-38.752-27.264l-29.824-151.36a34.304 34.304 0 0 1 27.616-40.384 128.544 128.544 0 0 0 78.08-118.752 129.44 129.44 0 0 0-129.28-129.28 129.44 129.44 0 0 0-129.28 129.28 129.376 129.376 0 0 0 78.016 118.72c17.792 6.464 26.976 26.144 20.48 43.936l-53.12 145.984a34.56 34.56 0 0 1-2.176 4.8z m393.92 307.904H167.104a34.304 34.304 0 0 1 0-68.576h639.136a34.304 34.304 0 0 1 0 68.576z" p-id="5513"></path></svg>