<?xml version="1.0" standalone="no"?><!DOCTYPE svg PUBLIC "-//W3C//DTD SVG 1.1//EN" "http://www.w3.org/Graphics/SVG/1.1/DTD/svg11.dtd"><svg t="1611737185534" class="icon" viewBox="0 0 1024 1024" version="1.1" xmlns="http://www.w3.org/2000/svg" p-id="6256" xmlns:xlink="http://www.w3.org/1999/xlink" width="200" height="200"><defs><style type="text/css"></style></defs><path d="M204.8 944.872727h609.745455c51.2 0 93.090909-41.890909 93.090909-88.436363v-698.181819c0-51.2-41.890909-88.436364-93.090909-88.436363H204.8c-51.2 0-93.090909 41.890909-93.090909 88.436363v693.527273c0 51.2 41.890909 93.090909 93.090909 93.090909zM176.872727 158.254545c0-13.963636 13.963636-27.927273 27.927273-27.927272h609.745455c13.963636 0 27.927273 13.963636 27.927272 27.927272v693.527273c0 13.963636-13.963636 27.927273-27.927272 27.927273H204.8c-13.963636 0-27.927273-13.963636-27.927273-27.927273V158.254545z" p-id="6257"></path><path d="M442.181818 353.745455H744.727273c18.618182 0 32.581818-13.963636 32.581818-32.581819s-13.963636-32.581818-32.581818-32.581818H442.181818c-18.618182 0-32.581818 13.963636-32.581818 32.581818s13.963636 32.581818 32.581818 32.581819zM442.181818 521.309091H744.727273c18.618182 0 32.581818-13.963636 32.581818-32.581818s-13.963636-27.927273-32.581818-27.927273H442.181818c-18.618182 0-32.581818 13.963636-32.581818 32.581818s18.618182 27.927273 32.581818 27.927273zM442.181818 702.836364H744.727273c18.618182 0 32.581818-13.963636 32.581818-32.581819 0-18.618182-13.963636-32.581818-32.581818-32.581818H442.181818c-18.618182 0-32.581818 13.963636-32.581818 32.581818 4.654545 18.618182 18.618182 32.581818 32.581818 32.581819zM297.890909 353.745455H325.818182c18.618182 0 32.581818-13.963636 32.581818-32.581819s-18.618182-27.927273-32.581818-27.927272h-27.927273c-18.618182 0-32.581818 13.963636-32.581818 27.927272s13.963636 32.581818 32.581818 32.581819zM297.890909 521.309091H325.818182c18.618182 0 32.581818-13.963636 32.581818-32.581818s-13.963636-27.927273-32.581818-27.927273h-27.927273c-18.618182 0-32.581818 13.963636-32.581818 32.581818s13.963636 27.927273 32.581818 27.927273zM297.890909 702.836364H325.818182c18.618182 0 32.581818-13.963636 32.581818-32.581819 0-18.618182-13.963636-32.581818-32.581818-32.581818h-27.927273c-18.618182 0-32.581818 13.963636-32.581818 32.581818 0 18.618182 13.963636 32.581818 32.581818 32.581819z" p-id="6258"></path></svg>