<?xml version="1.0" standalone="no"?><!DOCTYPE svg PUBLIC "-//W3C//DTD SVG 1.1//EN" "http://www.w3.org/Graphics/SVG/1.1/DTD/svg11.dtd"><svg t="1611737030664" class="icon" viewBox="0 0 1024 1024" version="1.1" xmlns="http://www.w3.org/2000/svg" p-id="2552" xmlns:xlink="http://www.w3.org/1999/xlink" width="200" height="200"><defs><style type="text/css"></style></defs><path d="M795.8 117H695.2c-14.3-31.2-45.8-53-82.4-53H411.2c-36.5 0-68.1 21.8-82.4 53H228.2C155.3 117 96 172.7 96 241.2v594.6c0 31.6 12.8 61.8 36 85 24.9 24.9 59.9 39.1 96 39.1H795.8c72.9 0 132.2-55.7 132.2-124.2V241.2c0-68.5-59.3-124.2-132.2-124.2z m-384.6-13h201.6c27.8 0 50.5 22.7 50.5 50.5S640.6 205 612.8 205H411.2c-27.8 0-50.5-22.7-50.5-50.5s22.7-50.5 50.5-50.5zM888 835.7c0 46.4-41.4 84.2-92.2 84.2H228c-25.6 0-50.3-10-67.8-27.4-15.6-15.6-24.2-35.7-24.2-56.7V241.2c0-46.4 41.4-84.2 92.2-84.2h92.5c1.3 48.8 41.4 88 90.5 88h201.6c49.1 0 89.1-39.2 90.5-88h92.5c50.8 0 92.2 37.8 92.2 84.2v594.5z" p-id="2553"></path><path d="M673.1 545.5L467.9 750.7c-1 1-2.2 1.2-3 1.2-0.8 0-2-0.2-3-1.2L347.6 636.4c-7.8-7.8-20.5-7.8-28.3 0s-7.8 20.5 0 28.3L433.6 779c8.3 8.3 19.4 12.9 31.2 12.9s22.9-4.6 31.2-12.9l205.2-205.2c7.8-7.8 7.8-20.5 0-28.3-7.7-7.9-20.3-7.9-28.1 0zM346 382.9h300c11 0 20-9 20-20s-9-20-20-20H346c-11 0-20 9-20 20s9 20 20 20zM346.6 474.4c-11 0-20 9-20 20s9 20 20 20H516c11 0 20-9 20-20s-9-20-20-20H346.6z" p-id="2554"></path></svg>