<?xml version="1.0" standalone="no"?><!DOCTYPE svg PUBLIC "-//W3C//DTD SVG 1.1//EN" "http://www.w3.org/Graphics/SVG/1.1/DTD/svg11.dtd"><svg t="1611737113000" class="icon" viewBox="0 0 1024 1024" version="1.1" xmlns="http://www.w3.org/2000/svg" p-id="4777" xmlns:xlink="http://www.w3.org/1999/xlink" width="200" height="200"><defs><style type="text/css"></style></defs><path d="M256.768 921.2416a153.6 153.6 0 0 1-108.8512-44.9536 153.856 153.856 0 0 1-45.568-109.4656 153.6 153.6 0 0 1 45.5168-109.4144l272.384-239.1552a252.7232 252.7232 0 0 1 65.9968-241.664 254.208 254.208 0 0 1 297.984-45.1584 30.72 30.72 0 0 1 7.5776 48.9984l-139.3664 139.264 51.8656 51.968 139.3664-139.4176a30.6176 30.6176 0 0 1 48.9984 7.5776 254.2592 254.2592 0 0 1-45.2608 297.984 252.416 252.416 0 0 1-241.5616 66.048l-237.7728 270.848a156.6208 156.6208 0 0 1-111.3088 46.5408zM665.6 163.7888c-49.92 0-98.9696 19.3024-135.936 56.32-51.7632 51.712-69.12 127.8464-45.3632 198.5536a30.72 30.72 0 0 1-8.8576 32.8704l-285.5936 250.6752a91.8528 91.8528 0 0 0-26.112 64.6144 93.5936 93.5936 0 0 0 159.4368 65.9968l249.344-284.2112a30.72 30.72 0 0 1 32.8704-8.8576c70.7584 23.7568 146.7904 6.4 198.5536-45.3632a192.3072 192.3072 0 0 0 49.92-185.4464L726.016 436.8384a31.744 31.744 0 0 1-43.52 0L587.264 341.504a30.8736 30.8736 0 0 1 0-43.52l127.8976-127.7952A196.6592 196.6592 0 0 0 665.6 163.7888zM291.5328 789.8112a40.448 40.448 0 1 1-57.1904-57.344 40.448 40.448 0 0 1 57.1904 57.344z" p-id="4778"></path></svg>