<?xml version="1.0" standalone="no"?><!DOCTYPE svg PUBLIC "-//W3C//DTD SVG 1.1//EN" "http://www.w3.org/Graphics/SVG/1.1/DTD/svg11.dtd"><svg t="1611737084059" class="icon" viewBox="0 0 1024 1024" version="1.1" xmlns="http://www.w3.org/2000/svg" p-id="4037" xmlns:xlink="http://www.w3.org/1999/xlink" width="200" height="200"><defs><style type="text/css"></style></defs><path d="M845.184 555.648c1.792-14.08 3.2-28.16 3.2-43.136 0-14.976-1.28-29.056-3.2-43.136l94.848-72.576c8.576-6.528 10.752-18.432 5.376-28.16l-89.856-152.064c-5.376-9.728-17.536-13.184-27.392-9.728L716.288 250.88c-23.424-17.536-48.512-32.128-75.904-43.136L623.36 91.264c-1.28-10.496-10.752-18.432-22.016-18.432h-179.84c-11.264 0-20.608 7.936-22.016 18.432l-17.024 116.48c-27.392 11.008-52.608 25.984-75.904 43.136l-111.872-44.032c-10.368-3.968-22.016 0-27.392 9.728l-89.984 152.32c-5.888 9.728-3.2 21.504 5.376 28.16l94.848 72.576c-1.792 14.08-3.2 28.544-3.2 43.136 0 14.464 1.408 29.056 3.2 43.136L82.688 628.48c-8.576 6.656-10.752 18.432-5.376 28.16l89.856 152.064c5.376 9.728 17.536 13.184 27.392 9.728L306.432 774.4c23.424 17.536 48.512 32.128 75.904 43.136l17.024 116.48c1.408 10.496 10.752 18.432 22.016 18.432h179.712c11.264 0 20.608-7.936 22.016-18.432l17.024-116.48c27.392-11.008 52.608-25.984 75.904-43.136l111.872 44.032c10.368 3.968 22.016 0 27.392-9.728l89.856-152.064c5.376-9.728 3.2-21.504-5.376-28.16l-94.592-72.832zM511.36 666.496c-86.656 0-157.312-68.992-157.312-153.856s70.528-153.856 157.312-153.856 157.312 68.992 157.312 153.856-70.528 153.856-157.312 153.856z" p-id="4038"></path></svg>