<?xml version="1.0" standalone="no"?><!DOCTYPE svg PUBLIC "-//W3C//DTD SVG 1.1//EN" "http://www.w3.org/Graphics/SVG/1.1/DTD/svg11.dtd"><svg t="1611736990166" class="icon" viewBox="0 0 1024 1024" version="1.1" xmlns="http://www.w3.org/2000/svg" p-id="1700" xmlns:xlink="http://www.w3.org/1999/xlink" width="200" height="200"><defs><style type="text/css"></style></defs><path d="M439.7 240.2h134.9c57.1 0 103.8-39.2 103.8-87.2s-46.7-87.2-103.8-87.2H439.7c-57.1 0-103.8 39.2-103.8 87.2s46.7 87.2 103.8 87.2z" p-id="1701"></path><path d="M806.4 158.3h-77.8v16.3c0 57.1-46.7 103.8-103.8 103.8H389.4c-57.1 0-103.8-46.7-103.8-103.8v-16.3h-77.8c-45.7 0-83 37.4-83 83v629.8c0 45.7 37.4 83 83 83h598.7c45.7 0 83-37.4 83-83V241.3c-0.1-45.7-37.4-83-83.1-83z m-83.3 353L479.3 755.1c-1 1.4-2.1 2.8-3.4 4-6 6-14 9-21.9 8.9-7.9 0.1-15.9-2.9-21.9-8.9-1.3-1.3-2.4-2.6-3.4-4L301.2 627.8c-11.9-11.9-11.9-31.4 0-43.2 11.9-11.9 31.4-11.9 43.2 0L453.9 694l225.9-225.9c11.9-11.9 31.4-11.9 43.2 0 12 11.9 12 31.3 0.1 43.2z" p-id="1702"></path></svg>