<?xml version="1.0" standalone="no"?><!DOCTYPE svg PUBLIC "-//W3C//DTD SVG 1.1//EN" "http://www.w3.org/Graphics/SVG/1.1/DTD/svg11.dtd"><svg t="1611737052647" class="icon" viewBox="0 0 1024 1024" version="1.1" xmlns="http://www.w3.org/2000/svg" p-id="3299" xmlns:xlink="http://www.w3.org/1999/xlink" width="200" height="200"><defs><style type="text/css"></style></defs><path d="M655.36 34.133333a157.013333 157.013333 0 0 1 156.672 146.295467l0.341333 10.717867v194.56a34.133333 34.133333 0 0 1-67.720533 6.144l-0.546133-6.144V191.146667a88.746667 88.746667 0 0 0-79.6672-88.2688L655.36 102.4H225.28a88.746667 88.746667 0 0 0-88.2688 79.6672L136.533333 191.146667v614.4a88.746667 88.746667 0 0 0 79.6672 88.2688l9.079467 0.477866h204.8a34.133333 34.133333 0 0 1 6.144 67.720534l-6.144 0.546133h-204.8a157.013333 157.013333 0 0 1-156.672-146.295467L68.266667 805.546667v-614.4A157.013333 157.013333 0 0 1 214.562133 34.474667L225.28 34.133333h430.08zM716.8 477.866667a238.933333 238.933333 0 1 1 0 477.866666 238.933333 238.933333 0 0 1 0-477.866666z m0 54.613333a184.32 184.32 0 1 0 0 368.64 184.32 184.32 0 0 0 0-368.64zM709.973333 614.4c15.018667 0 27.306667 12.288 27.306667 27.306667v66.833066h54.340267a27.306667 27.306667 0 1 1 0 54.613334h-81.92a27.306667 27.306667 0 0 1-26.487467-33.860267 31.1296 31.1296 0 0 1-0.546133-5.666133V641.706667c0-15.018667 12.288-27.306667 27.306666-27.306667z m-310.613333 6.826667a30.72 30.72 0 1 1 0 61.44h-143.36a30.72 30.72 0 1 1 0-61.44h143.36z m136.192-184.32a30.72 30.72 0 1 1 0 61.44H256a30.72 30.72 0 1 1 0-61.44h279.552zM624.64 252.586667a30.72 30.72 0 1 1 0 61.44h-368.64a30.72 30.72 0 1 1 0-61.44h368.64z" p-id="3300"></path></svg>