<?xml version="1.0" standalone="no"?><!DOCTYPE svg PUBLIC "-//W3C//DTD SVG 1.1//EN" "http://www.w3.org/Graphics/SVG/1.1/DTD/svg11.dtd"><svg t="1611737236112" class="icon" viewBox="0 0 1024 1024" version="1.1" xmlns="http://www.w3.org/2000/svg" p-id="7883" xmlns:xlink="http://www.w3.org/1999/xlink" width="200" height="200"><defs><style type="text/css"></style></defs><path d="M399.258 194.56c64.665 0 125.593 24.013 171.417 67.482a223.898 223.898 0 0 1 71.322 163.532c0 61.748-25.395 119.91-71.322 163.533a242.65 242.65 0 0 1-43.622 32.922l-11.981 6.656-10.445 5.12 8.039 2.97c24.78 9.983 47.77 23.04 68.659 38.911l12.288 9.933 11.776 10.599a276.736 276.736 0 0 1 62.617 88.217c15.258 34.253 23.04 70.605 23.194 108.288 0 21.76-18.278 39.117-40.653 39.117-22.323 0-40.601-17.408-40.601-39.117 0-53.197-21.812-103.168-61.44-140.851a215.194 215.194 0 0 0-149.146-58.624 215.194 215.194 0 0 0-149.094 58.624 192.973 192.973 0 0 0-61.44 140.851c0 21.76-18.33 39.117-40.653 39.117-22.375 0-40.653-17.408-40.653-39.117 0-37.58 7.68-73.933 23.04-108.288 14.694-33.024 35.84-62.771 62.618-88.217 22.988-21.812 49.152-39.63 78.028-53.044l14.644-6.348 8.09-3.072-10.446-5.12a243.354 243.354 0 0 1-34.713-21.812l-10.701-8.55-10.24-9.165a223.898 223.898 0 0 1-71.27-163.533c0-61.747 25.395-119.91 71.321-163.481a247.245 247.245 0 0 1 171.367-67.533z m-0.052 78.182c-89.088 0-161.484 68.71-161.484 152.832s72.345 152.832 161.484 152.832c89.14 0 161.434-68.608 161.434-152.832 0-84.121-72.346-152.832-161.434-152.832z" p-id="7884"></path><path d="M667.802 245.76c53.452 0 103.833 20.787 141.67 58.42a197.53 197.53 0 0 1 58.778 141.055c0 53.248-20.941 103.424-58.778 141.056a201.78 201.78 0 0 1-30.515 24.986l-11.11 6.86-10.138 5.377 3.686 1.484c19.61 8.244 37.888 18.944 54.58 32l12.185 10.19 9.728 9.113a238.848 238.848 0 0 1 70.605 169.37 35.02 35.02 0 0 1-35.123 34.969 35.02 35.02 0 0 1-35.072-34.97 167.936 167.936 0 0 0-49.92-119.859 169.728 169.728 0 0 0-141.261-48.435l-2.048-1.638a293.888 293.888 0 0 0-68.71-38.912l-8.039-3.021 10.445-5.12 11.98-6.656a242.637 242.637 0 0 0 74.753-69.12l2.355 0.051c64.973 0 117.76-52.787 117.76-117.76a117.914 117.914 0 0 0-107.776-117.35 232.602 232.602 0 0 0-56.013-66.919 207.146 207.146 0 0 1 45.978-5.171z" p-id="7885"></path></svg>