<?xml version="1.0" standalone="no"?><!DOCTYPE svg PUBLIC "-//W3C//DTD SVG 1.1//EN" "http://www.w3.org/Graphics/SVG/1.1/DTD/svg11.dtd"><svg t="1611737223408" class="icon" viewBox="0 0 1024 1024" version="1.1" xmlns="http://www.w3.org/2000/svg" p-id="7742" xmlns:xlink="http://www.w3.org/1999/xlink" width="200" height="200"><defs><style type="text/css"></style></defs><path d="M273.682 257.778c0 72.096 39.16 138.7 102.753 174.735 63.594 36.048 141.938 36.048 205.533 0 63.58-36.035 102.752-102.64 102.752-174.735C684.721 146.333 592.711 56 479.202 56c-113.51 0-205.52 90.333-205.52 201.778z m0 0M533.854 749.023c0-88.244 34.172-167.885 88.887-228.129a475.022 475.022 0 0 0-144.382-22.86C219.131 498.035 8.99 704.334 8.99 958.838h598.85c-47.789-59.891-73.836-133.738-73.986-209.815z m0 0M1014.795 786.166l0.215-76.869s-51.691-10.051-52.521-13.439c-0.984-3.729-2.029-7.432-3.188-11.096 6.07-11.021 35.166-35.217 35.166-35.217l-58.316-76.24s-37.787 30.557-47.17 34.928a146.447 146.447 0 0 0-13.842-4.498c-5.076-1.258-19.121-50.115-19.121-50.115l-78.443-0.631s-8.477 47.346-21.186 50.607c-4.232 1.248-8.477 2.771-12.709 4.711-9.396-4.508-47.156-35.492-47.156-35.492l-58.33 77.498s29.234 28.906 31.211 38.605a155.347 155.347 0 0 0-3.463 9.283 577.59 577.59 0 0 1-48.215 11.234l0.139 76.869s41.514 8.465 49.424 15.316c1.625 4.447 3.525 8.742 5.504 12.973-9.598 11.777-35.154 31.326-35.154 31.326l60.156 76.883s47.232-30.027 54.99-31.754a172.736 172.736 0 0 0 11.791 4.572c7.129 2.432 12.154 47.207 12.154 47.207l78.367 0.201s2.609-43.943 8.389-45.67a162.95 162.95 0 0 0 16.678-6.109c6.563 2.508 37.559 32.861 37.559 32.861l77.512-77.498s-28.729-19.475-36.703-30.016a157.702 157.702 0 0 0 5.934-13.439c2.467-7.216 50.328-16.991 50.328-16.991m-199.461 58.293c-35.328 0-67.977-18.504-85.66-48.543-17.658-30.053-17.658-67.07 0-97.111 17.684-30.051 50.332-48.566 85.66-48.566 54.641 0 98.926 43.479 98.926 97.109 0 53.644-44.285 97.111-98.926 97.111" p-id="7743"></path></svg>